<?xml version="1.0" standalone="no"?>
<!DOCTYPE svg PUBLIC "-//W3C//DTD SVG 20010904//EN"
 "http://www.w3.org/TR/2001/REC-SVG-20010904/DTD/svg10.dtd">
<svg version="1.0" xmlns="http://www.w3.org/2000/svg"
 width="300.000000pt" height="300.000000pt" viewBox="0 0 300.000000 300.000000"
 preserveAspectRatio="xMidYMid meet">
<metadata>
Created by potrace 1.14, written by Peter Selinger 2001-2017
</metadata>
<g transform="translate(0.000000,300.000000) scale(0.100000,-0.100000)"
fill="#000000" stroke="none">
<path d="M486 2984 c-57 -15 -83 -37 -90 -79 -7 -40 7 -59 151 -202 67 -68
129 -136 137 -151 36 -69 21 -158 -36 -210 -26 -24 -101 -51 -128 -47 -57 10
-72 15 -84 27 -8 7 -77 74 -153 149 -132 129 -142 137 -177 135 -46 -4 -70
-25 -86 -79 -18 -60 -20 -194 -4 -272 12 -59 66 -191 83 -205 3 -3 21 -25 40
-50 19 -25 57 -64 85 -88 52 -44 170 -107 216 -116 14 -2 43 -8 65 -13 50 -12
162 -9 239 6 33 6 65 11 72 11 18 0 989 -978 986 -992 -42 -151 -33 -315 24
-445 66 -152 214 -283 376 -335 120 -38 322 -29 374 16 29 25 39 68 23 99 -7
12 -70 80 -142 152 -71 72 -136 143 -144 160 -34 65 -11 163 50 209 39 30 65
38 120 37 57 -1 81 -18 222 -158 141 -141 161 -156 201 -149 65 12 84 58 89
210 7 217 -90 401 -277 525 -31 21 -71 43 -90 50 -18 7 -42 17 -53 21 -26 11
-86 20 -150 24 -45 3 -86 -1 -215 -20 -35 -5 -40 0 -523 484 l-489 489 15 74
c65 320 -108 621 -413 720 -80 26 -241 33 -314 13z"/>
<path d="M2495 2856 c-132 -80 -250 -154 -262 -166 -35 -32 -27 -109 13 -133
8 -4 14 -13 14 -20 0 -7 -131 -143 -291 -303 l-290 -290 121 -122 c66 -67 123
-122 126 -122 3 0 137 131 297 290 160 160 294 290 298 290 4 0 18 -12 31 -27
42 -50 104 -59 141 -21 10 10 116 183 202 330 6 9 30 49 53 90 66 109 66 125
1 194 -119 127 -154 154 -197 154 -9 0 -125 -65 -257 -144z"/>
<path d="M511 1006 c-237 -237 -439 -442 -449 -456 -44 -61 -55 -100 -56 -206
0 -72 3 -88 32 -147 90 -182 322 -251 495 -147 18 11 228 216 468 456 l436
435 -126 126 c-69 70 -181 181 -248 249 l-121 122 -431 -432z m519 39 c40 -21
56 -79 33 -115 -9 -14 -139 -148 -289 -298 -284 -284 -304 -299 -355 -271 -55
29 -65 88 -25 136 51 60 546 548 563 555 28 10 42 9 73 -7z"/>
</g>
</svg>
